<svg xmlns="http://www.w3.org/2000/svg" width="335" height="520.605" viewBox="0 0 335 520.605">
  <g id="avatar" transform="translate(-0.5)">
    <path id="Caminho_15996" data-name="Caminho 15996" d="M222.6,184.047s18.778,40.079,18.778,42.2-16.662,11.179-19.836,13.083a77.192,77.192,0,0,1-7.6,3.791l1.9,18.567s28.688-6.542,40.713-13.083,11.6-13.93,8.816-24.9-21.317-53.356-21.317-53.356Z" fill="#e1e1e6"/>
    <g id="Grupo_103" data-name="Grupo 103" opacity="0.5" style="mix-blend-mode: multiply;isolation: isolate">
      <path id="Caminho_15997" data-name="Caminho 15997" d="M256.505,248.6c12.025-6.542,11.6-13.93,8.816-24.9S244,170.347,244,170.347l-3,1.9-.952,1.763s17.3,42.459,18.338,56.6c.7,9.5-18.426,21.353-31.069,28.124C236.7,256.252,249.47,252.426,256.505,248.6Z" fill="#bbbbbf"/>
    </g>
    <path id="Caminho_15998" data-name="Caminho 15998" d="M222.6,184.047s18.778,40.079,18.778,42.2-16.662,11.179-19.836,13.083a77.192,77.192,0,0,1-7.6,3.791l1.9,18.567s28.688-6.542,40.713-13.083,11.6-13.93,8.816-24.9-21.317-53.356-21.317-53.356Z" fill="none" stroke="#263238" stroke-linecap="round" stroke-linejoin="round" stroke-width="1"/>
    <path id="Caminho_15999" data-name="Caminho 15999" d="M87.11,175.2S73.41,225.4,73,234.264s27.207,26.361,28.212,27.419-1.569-30.5-1.569-30.5l9.363-45.845Z" fill="#e1e1e6"/>
    <g id="Grupo_104" data-name="Grupo 104" opacity="0.5" style="mix-blend-mode: multiply;isolation: isolate">
      <path id="Caminho_16000" data-name="Caminho 16000" d="M93.387,179.3l-.3-1.358L87.11,175.2S73.41,225.4,73,234.264s27.207,26.361,28.212,27.419c.406.423.247-4.3-.088-10.139-8.217-6.965-20.013-16.768-21.388-20.894" fill="#bbbbbf"/>
    </g>
    <path id="Caminho_16001" data-name="Caminho 16001" d="M87.11,175.2S73.41,225.4,73,234.264s27.207,26.361,28.212,27.419-1.569-30.5-1.569-30.5l9.363-45.845Z" fill="none" stroke="#263238" stroke-linecap="round" stroke-linejoin="round" stroke-width="1"/>
    <path id="Caminho_16002" data-name="Caminho 16002" d="M151.451,124.767s-5.29,3.809-15.605,4.232-10.808-7.053-23.627-7.053c-15.534,0-35.018,49.141-35.018,49.141s9.7,9.5,19.2,13.507a68.129,68.129,0,0,0,16.451,4.849l1.481,32.285H218.966l1.251-32.285,32.709-21.212s-16.046-28.688-23.839-39.444-20.9-6.753-24.9-4.02-15.87,3.385-20.242,2.751a174.9,174.9,0,0,1-16.892-4.638S160.32,117.273,151.451,124.767Z" fill="#eba417" stroke="#263238" stroke-linecap="round" stroke-linejoin="round" stroke-width="1"/>
    <path id="Caminho_16003" data-name="Caminho 16003" d="M113.5,189.5l.953-53.5L102,186.3Z" fill="#bc8312" fill-rule="evenodd"/>
    <path id="Caminho_16004" data-name="Caminho 16004" d="M206.192,221.862V159c0-15.95-13.484-20.893-31.469-27.486-6.258-2.294-13.061-4.787-20.031-8.014l-.692-.137c7.833-5.1,13.547-.348,13.547-.348a174.686,174.686,0,0,0,16.892,4.637c4.373.635,16.239-.018,20.242-2.751s17.1-6.735,24.9,4.021,23.839,39.443,23.839,39.443l-32.708,21.212-1.252,32.285Z" fill="#bc8312" fill-rule="evenodd"/>
    <path id="Caminho_16005" data-name="Caminho 16005" d="M113.912,136.158l-.423,53.585" fill="none" stroke="#263238" stroke-linecap="round" stroke-linejoin="round" stroke-width="0.5"/>
    <path id="Caminho_16006" data-name="Caminho 16006" d="M117.7,141.024s1.481,26.149,7.053,40.713" fill="none" stroke="#263238" stroke-linecap="round" stroke-linejoin="round" stroke-width="0.5"/>
    <path id="Caminho_16007" data-name="Caminho 16007" d="M125.725,183.836a71.925,71.925,0,0,0,4.426,10.332" fill="none" stroke="#263238" stroke-linecap="round" stroke-linejoin="round" stroke-width="0.5"/>
    <path id="Caminho_16008" data-name="Caminho 16008" d="M121.07,138.062a167.374,167.374,0,0,0,8.446,27.841" fill="none" stroke="#263238" stroke-linecap="round" stroke-linejoin="round" stroke-width="0.5"/>
    <path id="Caminho_16009" data-name="Caminho 16009" d="M212.019,142.7s-5.061,20.683-9.5,29.975" fill="none" stroke="#263238" stroke-linecap="round" stroke-linejoin="round" stroke-width="0.5"/>
    <path id="Caminho_16010" data-name="Caminho 16010" d="M220.217,189.531l-.211-41.771" fill="none" stroke="#263238" stroke-linecap="round" stroke-linejoin="round" stroke-width="0.5"/>
    <path id="Caminho_16011" data-name="Caminho 16011" d="M217.908,148.606s-3.809,26.449-13.084,40.29" fill="none" stroke="#263238" stroke-linecap="round" stroke-linejoin="round" stroke-width="0.5"/>
    <path id="Caminho_16012" data-name="Caminho 16012" d="M213.27,183.624s-4.231,8.023-7.176,12.237" fill="none" stroke="#263238" stroke-linecap="round" stroke-linejoin="round" stroke-width="0.5"/>
    <path id="Caminho_16013" data-name="Caminho 16013" d="M145.544,127.941s2.962,18.144,7.177,27.418,11.6,11.179,17.932,8.446,10.967-16.257,10.579-33.5" fill="none" stroke="#263238" stroke-linecap="round" stroke-linejoin="round" stroke-width="0.5"/>
    <path id="Caminho_16014" data-name="Caminho 16014" d="M130.574,89.961s-4.02-6.947-7.176-3.368,2.539,11.814,5.695,14.547,5.484,1.058,5.29-1.887S130.574,89.961,130.574,89.961Z" fill="#e1e1e6" stroke="#263238" stroke-linecap="round" stroke-linejoin="round" stroke-width="1"/>
    <path id="Caminho_16015" data-name="Caminho 16015" d="M130.574,89.961s-4.02-6.947-7.176-3.368,2.539,11.814,5.695,14.547,5.484,1.058,5.29-1.887S130.574,89.961,130.574,89.961Z" fill="none" stroke="#263238" stroke-linecap="round" stroke-linejoin="round" stroke-width="1"/>
    <path id="Caminho_16016" data-name="Caminho 16016" d="M194.386,89.961s4-6.947,7.176-3.368-2.539,11.814-5.695,14.547-5.5,1.058-5.29-1.887S194.386,89.961,194.386,89.961Z" fill="#e1e1e6" stroke="#263238" stroke-linecap="round" stroke-linejoin="round" stroke-width="1"/>
    <path id="Caminho_16017" data-name="Caminho 16017" d="M194.386,89.961s4-6.947,7.176-3.368-2.539,11.814-5.695,14.547-5.5,1.058-5.29-1.887S194.386,89.961,194.386,89.961Z" fill="none" stroke="#263238" stroke-linecap="round" stroke-linejoin="round" stroke-width="1"/>
    <path id="Caminho_16018" data-name="Caminho 16018" d="M149.547,123.3a227.113,227.113,0,0,0,7.6,26.572c3.809,9.486,10.968,9.486,13.93,3.367s4.849-28.917,4.849-28.917S156.088,127.094,149.547,123.3Z" fill="#e1e1e6" stroke="#263238" stroke-linecap="round" stroke-linejoin="round" stroke-width="1"/>
    <path id="Caminho_16019" data-name="Caminho 16019" d="M131,92.288s5.484,19.4,15.87,30.8,14.106,14.106,19.625,13.277,11.39-8.005,19.607-22.922,8.816-26.36,9.5-27.418S193.839,63.882,182.1,54.8s-24.9-13.066-36.287-3.156S127.189,77.724,131,92.288Z" fill="#e1e1e6"/>
    <path id="Caminho_16020" data-name="Caminho 16020" d="M131,92.288s5.484,19.4,15.87,30.8,14.106,14.106,19.625,13.277,11.39-8.005,19.607-22.922,8.816-26.36,9.5-27.418S193.839,63.882,182.1,54.8s-24.9-13.066-36.287-3.156S127.189,77.724,131,92.288Z" fill="none" stroke="#263238" stroke-linecap="round" stroke-linejoin="round" stroke-width="1"/>
    <path id="Caminho_16021" data-name="Caminho 16021" d="M166.439,102.409a85.956,85.956,0,0,0-1.058,12.449c.211,4.214,1.481,5.483-.424,5.906s-4-2.539-4-2.539" fill="none" stroke="#263238" stroke-linecap="round" stroke-linejoin="round" stroke-width="1"/>
    <path id="Caminho_16022" data-name="Caminho 16022" d="M145.333,105.795a7.474,7.474,0,0,0,8.445.211" fill="none" stroke="#263238" stroke-linecap="round" stroke-linejoin="round" stroke-width="1"/>
    <path id="Caminho_16023" data-name="Caminho 16023" d="M172.134,105.795a7.461,7.461,0,0,0,8.428.211" fill="none" stroke="#263238" stroke-linecap="round" stroke-linejoin="round" stroke-width="1"/>
    <path id="Caminho_16024" data-name="Caminho 16024" d="M158.8,98.689s-4.02-9.927-17.3-5.29" fill="none" stroke="#263238" stroke-linecap="round" stroke-linejoin="round" stroke-width="1"/>
    <path id="Caminho_16025" data-name="Caminho 16025" d="M169.859,97.472s3.368-9.715,15.393-4.02" fill="none" stroke="#263238" stroke-linecap="round" stroke-linejoin="round" stroke-width="1"/>
    <path id="Caminho_16026" data-name="Caminho 16026" d="M161.36,106.517c0,5.431-6.224,9.822-13.912,9.822s-13.929-4.391-13.929-9.822,5.819-7.687,13.506-7.687S161.36,101.1,161.36,106.517Z" fill="none" stroke="#263238" stroke-linecap="round" stroke-linejoin="round" stroke-width="1"/>
    <path id="Caminho_16027" data-name="Caminho 16027" d="M193.434,106.517c0,5.431-6.242,9.822-13.93,9.822s-13.912-4.391-13.912-9.822,5.8-7.687,13.489-7.687S193.434,101.1,193.434,106.517Z" fill="none" stroke="#263238" stroke-linecap="round" stroke-linejoin="round" stroke-width="1"/>
    <path id="Caminho_16028" data-name="Caminho 16028" d="M180.862,36.6c2.1-.441,6.6-2.169,9.627-9.2a.872.872,0,0,0,.074-.337.86.86,0,0,0-.061-.34.871.871,0,0,0-.187-.29.881.881,0,0,0-.284-.2.9.9,0,0,0-1.164.458c-2.786,6.453-6.771,7.882-8.428,8.2a20.24,20.24,0,0,0,4.637-12.748C185.076,9.909,173.738,0,159.756,0s-25.32,9.909-25.32,22.146a20.234,20.234,0,0,0,4.232,12.343c-2.663-.141-7.159.988-12.854,7.635a.9.9,0,0,0,0,1.252.915.915,0,0,0,.581.212.863.863,0,0,0,.67-.317c7.283-8.481,12.1-7.053,13.066-6.665a25.949,25.949,0,0,0-4.6,3.227c-8.129,7.317-13.083,21.159-12.448,32.691A42.513,42.513,0,0,0,131.1,93.681a49.183,49.183,0,0,0,14.335-16.046,134.577,134.577,0,0,0,7.053-14.406c0,5.166.67,11.408,3.386,15.869A22.5,22.5,0,0,0,175.66,90.666a18.644,18.644,0,0,0,4.144-.406.88.88,0,0,0,.564-.441c6.806,1.446,13.577,1.322,14.618-.123,1.675-2.31,4.055-9.521,4.848-18.338C201.28,56.406,191.865,43.429,180.862,36.6ZM157.517,78.023c-3.421-5.59-3.315-14.705-2.91-19.942l.23-.6a35.9,35.9,0,0,0,14.335,27.63,25.829,25.829,0,0,0,7.811,3.65C172.663,89.061,163.776,88.233,157.517,78.023Z" fill="#263238"/>
    <path id="Caminho_16029" data-name="Caminho 16029" d="M157.816,50.27s-1.445,10.685,12.131,21.159S196.4,77.777,196.4,77.777" fill="none" stroke="#e1e1e6" stroke-linecap="round" stroke-linejoin="round" stroke-width="0.5"/>
    <path id="Caminho_16030" data-name="Caminho 16030" d="M159.809,46.744s14.3,20.824,34.048,15.393" fill="none" stroke="#e1e1e6" stroke-linecap="round" stroke-linejoin="round" stroke-width="0.5"/>
    <path id="Caminho_16031" data-name="Caminho 16031" d="M152.738,39.814a13.806,13.806,0,0,0-14.3,1.093c-7.6,5.061-11.408,17.015-11.408,17.015" fill="none" stroke="#e1e1e6" stroke-linecap="round" stroke-linejoin="round" stroke-width="0.5"/>
    <path id="Caminho_16032" data-name="Caminho 16032" d="M153.109,45.615s-6.154-1.64-9.963,2.169a24.547,24.547,0,0,0-4.708,5.8" fill="none" stroke="#e1e1e6" stroke-linecap="round" stroke-linejoin="round" stroke-width="0.5"/>
    <path id="Caminho_16033" data-name="Caminho 16033" d="M23.926,269.854l-.9,191.417a2.124,2.124,0,0,0,.775,1.608,2.955,2.955,0,0,0,3.7.027,2.125,2.125,0,0,0,.8-1.556L34.66,270.123Z" fill="#e1e1e6" stroke="#263238" stroke-linecap="round" stroke-linejoin="round" stroke-width="1"/>
    <path id="Caminho_16034" data-name="Caminho 16034" d="M10.062,314.308,9.277,512.077a2.148,2.148,0,0,0,.179.872,2.253,2.253,0,0,0,.521.739,2.385,2.385,0,0,0,.783.492,2.544,2.544,0,0,0,2.59-.463,2.219,2.219,0,0,0,.739-1.546L19.853,314.56Z" fill="#e1e1e6" stroke="#263238" stroke-linecap="round" stroke-linejoin="round" stroke-width="1"/>
    <path id="Caminho_16035" data-name="Caminho 16035" d="M311.994,269.854l.82,191.417a2.151,2.151,0,0,1-.177.869,2.265,2.265,0,0,1-.518.738,2.421,2.421,0,0,1-.778.494,2.53,2.53,0,0,1-.92.173,2.486,2.486,0,0,1-1.675-.638,2.217,2.217,0,0,1-.735-1.557l-5.773-191.227Z" fill="#e1e1e6" stroke="#263238" stroke-linecap="round" stroke-linejoin="round" stroke-width="1"/>
    <path id="Caminho_16036" data-name="Caminho 16036" d="M325.744,314.308l.819,197.769a2.154,2.154,0,0,1-.179.872,2.248,2.248,0,0,1-.521.739,2.387,2.387,0,0,1-.783.492,2.5,2.5,0,0,1-.923.169,2.466,2.466,0,0,1-1.661-.633,2.2,2.2,0,0,1-.728-1.545L315.987,314.56Z" fill="#e1e1e6" stroke="#263238" stroke-linecap="round" stroke-linejoin="round" stroke-width="1"/>
    <path id="Caminho_16037" data-name="Caminho 16037" d="M108.106,322.775l-.46,174.885a1.688,1.688,0,0,0,.341,1.224,1.265,1.265,0,0,0,2.186.037,1.673,1.673,0,0,0,.372-1.182l3.436-174.759Z" fill="#e1e1e6" stroke="#263238" stroke-linecap="round" stroke-linejoin="round" stroke-width="1"/>
    <path id="Caminho_16038" data-name="Caminho 16038" d="M228.75,316.425l.5,154a1.309,1.309,0,0,1-.355,1.04,1.373,1.373,0,0,1-2.193,0,1.3,1.3,0,0,1-.342-1.039l-3.448-153.874Z" fill="#e1e1e6" stroke="#263238" stroke-linecap="round" stroke-linejoin="round" stroke-width="1"/>
    <path id="Caminho_16039" data-name="Caminho 16039" d="M106.066,316.425l.5,154a1.309,1.309,0,0,1-.355,1.04,1.373,1.373,0,0,1-2.193,0,1.3,1.3,0,0,1-.342-1.039l-3.448-153.874Z" fill="#e1e1e6" stroke="#263238" stroke-linecap="round" stroke-linejoin="round" stroke-width="1"/>
    <path id="Caminho_16040" data-name="Caminho 16040" d="M225.5,322.775l.573,174.885a1.52,1.52,0,0,1-.4,1.224,1.6,1.6,0,0,1-2.546.034,1.536,1.536,0,0,1-.438-1.179L218.686,322.98Z" fill="#e1e1e6" stroke="#263238" stroke-linecap="round" stroke-linejoin="round" stroke-width="1"/>
    <path id="Caminho_16041" data-name="Caminho 16041" d="M165.706,336c42.224,0,76.452-7.773,76.452-17.362s-34.228-17.362-76.452-17.362-76.451,7.773-76.451,17.362S123.483,336,165.706,336Z" fill="#e1e1e6" stroke="#263238" stroke-linecap="round" stroke-linejoin="round" stroke-width="1"/>
    <path id="Caminho_16042" data-name="Caminho 16042" d="M128.477,466.018s-4,5.7-1.134,8.536,5.721,1.707,5.429,4.558-4.862,12.514-8.865,22.757,4.295,20.486,12.026,17.652,6.872-31.309,8.006-36.431,2.01-5.975,1.718-10.806-.567-9.953-4.295-10.534S130.2,464.038,128.477,466.018Z" fill="#e1e1e6" stroke="#263238" stroke-linecap="round" stroke-linejoin="round" stroke-width="1"/>
    <path id="Caminho_16043" data-name="Caminho 16043" d="M140.761,511.668c-5.154-1.946-13.057-1.553-17.507-1.109,1.5,6.436,7.216,10.96,12.679,8.962C138.218,518.685,139.713,515.646,140.761,511.668Z" fill="#61dcfb" stroke="#263238" stroke-linecap="round" stroke-linejoin="round" stroke-width="1"/>
    <path id="Caminho_16044" data-name="Caminho 16044" d="M119.612,453.505s8.3,13.947,10.583,17.635,10.033,2.561,10.892-2.561-3.161-19.342-3.161-19.342l-17.18,4.268Z" fill="#e1e1e6" stroke="#263238" stroke-linecap="round" stroke-linejoin="round" stroke-width="1"/>
    <path id="Caminho_16045" data-name="Caminho 16045" d="M99.855,431.312s-2.3,3.7-1.151,6.265,4.3,9.953,6.305,13.657,11.167,5.976,21.75,4.268,16.613-6.555,16.9-10.823-1.718-9.953-3.161-16.782-5.154-6.538-10.308-6.538S104.15,427.334,99.855,431.312Z" fill="#61dcfb" stroke="#263238" stroke-linecap="round" stroke-linejoin="round" stroke-width="1"/>
    <path id="Caminho_16046" data-name="Caminho 16046" d="M130.779,347.66c.155-7,4.226-10.448,4.536-15.245a59.968,59.968,0,0,0-1.564-18.9l-7.834-10.635c-22.54.29-38.69.666-38.947.751-.859.273-1.443,5.121-2.01,9.1,0,0-9.569,1.212-7.851,27.673.241,3.688,9.9,46.35,10.6,51.216,4.3,29.722,13.865,44.608,13.865,44.608s.859,3.705,12.026,2.851,22.334-8.245,22.334-8.245S130.2,372.977,130.779,347.66Z" fill="#263238" stroke="#263238" stroke-linecap="round" stroke-linejoin="round" stroke-width="1"/>
    <path id="Caminho_16047" data-name="Caminho 16047" d="M104.425,313.516a112.474,112.474,0,0,1,22.334,3.415c9.741,2.851,26.921,8.536,30.924,8.536s2.869-14.8,2.869-17.635-51.54-4.559-57.845-4.559S104.425,313.516,104.425,313.516Z" fill="#e1e1e6" stroke="#263238" stroke-linecap="round" stroke-linejoin="round" stroke-width="1"/>
    <path id="Caminho_16048" data-name="Caminho 16048" d="M160.552,307.832s-4.587,2.27-6.305,10.806-4,13.094-.567,15.365,18.332,3.977,20.616,1.707,8.591-13.658,9.742-21.05S160.552,307.832,160.552,307.832Z" fill="#61dcfb" stroke="#263238" stroke-linecap="round" stroke-linejoin="round" stroke-width="1"/>
    <path id="Caminho_16049" data-name="Caminho 16049" d="M180.018,310.665a35.617,35.617,0,0,0-6.288,10.243,94.507,94.507,0,0,0-2.869,11.951,112.256,112.256,0,0,1,16.029,5.7c9.174,3.977,24.636,6.828,39.514,10.243s18.9,6.828,24.052,6.828,11.46-3.994,19.483-13.657,1.134-30.166-6.872-36.431-50.974-11.37-56.695-9.663S180.018,310.665,180.018,310.665Z" fill="#263238" stroke="#263238" stroke-linecap="round" stroke-linejoin="round" stroke-width="1"/>
    <path id="Caminho_16050" data-name="Caminho 16050" d="M129.9,335.181s-5.91,62.841-17.971,72.623" fill="none" stroke="#49606b" stroke-linecap="round" stroke-linejoin="round" stroke-width="0.5"/>
    <path id="Caminho_16051" data-name="Caminho 16051" d="M125.728,394.829s-4.69,20.486-16.991,28.63" fill="none" stroke="#49606b" stroke-linecap="round" stroke-linejoin="round" stroke-width="0.5"/>
    <path id="Caminho_16052" data-name="Caminho 16052" d="M201.785,323.76s-18.331,1.143-6.305,9.1,33.793,13.094,33.793,13.094" fill="none" stroke="#49606b" stroke-linecap="round" stroke-linejoin="round" stroke-width="0.5"/>
    <path id="Caminho_16053" data-name="Caminho 16053" d="M334.863,306.466l-6.185-5.532L314.384,270.2a8.236,8.236,0,0,0-7.491-4.626H29.261a8.234,8.234,0,0,0-7.508,4.626L3.938,308.48,1,307.4v8.757l.137-.1a4.858,4.858,0,0,0,1.679,3,4.912,4.912,0,0,0,3.252,1.151h324a4.843,4.843,0,0,0,3.386-1.271A4.784,4.784,0,0,0,335,315.684Z" fill="#5e5e61" stroke="#263238" stroke-linecap="round" stroke-linejoin="round" stroke-width="1"/>
    <path id="Caminho_16054" data-name="Caminho 16054" d="M330.069,312.2h-324a4.753,4.753,0,0,1-4.1-2.048,4.687,4.687,0,0,1-.433-4.542L21.754,262.2a8.2,8.2,0,0,1,7.508-4.627H306.893a8.237,8.237,0,0,1,4.425,1.227,8.152,8.152,0,0,1,3.066,3.4l20.221,43.413a4.691,4.691,0,0,1-.433,4.542,4.753,4.753,0,0,1-4.1,2.048Z" fill="#e1e1e6" stroke="#263238" stroke-linecap="round" stroke-linejoin="round" stroke-width="1"/>
    <g id="Grupo_105" data-name="Grupo 105" opacity="0.5" style="mix-blend-mode: multiply;isolation: isolate">
      <path id="Caminho_16055" data-name="Caminho 16055" d="M22.475,283.043s-7.336,5-2.749,6.829,57.313.461,63.738-1.366S97.209,269.83,97.209,267.1s-9.243-4.695-12.645-4.848-48.345,2.561-48.345,2.561Z" fill="#a8a8a8"/>
    </g>
    <g id="Grupo_106" data-name="Grupo 106" opacity="0.5" style="mix-blend-mode: multiply;isolation: isolate">
      <path id="Caminho_16056" data-name="Caminho 16056" d="M284.748,291.7c10.38,0,18.8-3.47,18.8-7.751s-8.415-7.751-18.8-7.751-18.795,3.471-18.795,7.751S274.368,291.7,284.748,291.7Z" fill="#a8a8a8"/>
    </g>
    <g id="Grupo_107" data-name="Grupo 107" opacity="0.5" style="mix-blend-mode: multiply;isolation: isolate">
      <path id="Caminho_16057" data-name="Caminho 16057" d="M165.088,301.276c37.223,0,67.4-5.61,67.4-12.531s-30.175-12.53-67.4-12.53-67.4,5.61-67.4,12.53S127.865,301.276,165.088,301.276Z" fill="#a8a8a8"/>
    </g>
    <path id="Caminho_16058" data-name="Caminho 16058" d="M271,253.458s-1.237-4.9-5.343-3.261-3.694,12.463-2.886,18.591,6.373,3.261,6.373,3.261v-3.67s-2.044,1.622-3.075-.615-.824-13.487.206-13.282,3.076,3.671,3.076,3.671S269.973,257.76,271,253.458Z" fill="#61dcfb" stroke="#263238" stroke-linecap="round" stroke-linejoin="round" stroke-width="1"/>
    <path id="Caminho_16059" data-name="Caminho 16059" d="M268.049,254.277v26.837c0,3.158,7.3,5.719,16.321,5.719s16.3-2.561,16.3-5.719V254.277Z" fill="#61dcfb" stroke="#263238" stroke-linecap="round" stroke-linejoin="round" stroke-width="1"/>
    <path id="Caminho_16060" data-name="Caminho 16060" d="M300.674,254.277c0,2.732-7.3,4.934-16.3,4.934s-16.321-2.2-16.321-4.934,7.3-4.933,16.321-4.933S300.674,251.563,300.674,254.277Z" fill="#e1e1e6" stroke="#263238" stroke-linecap="round" stroke-linejoin="round" stroke-width="1"/>
    <path id="Caminho_16061" data-name="Caminho 16061" d="M298.543,254.277c0,2.373-6.356,4.285-14.173,4.285s-14.191-1.912-14.191-4.285,6.357-4.285,14.191-4.285S298.543,251.9,298.543,254.277Z" fill="#e1e1e6" stroke="#263238" stroke-linecap="round" stroke-linejoin="round" stroke-width="1"/>
    <path id="Caminho_16062" data-name="Caminho 16062" d="M273.426,257.009a39.272,39.272,0,0,0,21.871,0A39.272,39.272,0,0,0,273.426,257.009Z" fill="#263238" stroke="#263238" stroke-linecap="round" stroke-linejoin="round" stroke-width="1"/>
    <path id="Caminho_16063" data-name="Caminho 16063" d="M20.448,266.535l.206,9.184,62.278.615V265.715Z" fill="#e1e1e6" stroke="#263238" stroke-linecap="round" stroke-linejoin="round" stroke-width="1"/>
    <path id="Caminho_16064" data-name="Caminho 16064" d="M82.932,276.334l9.054-19.393v-5.719L82.52,267.559Z" fill="#e1e1e6" stroke="#263238" stroke-linecap="round" stroke-linejoin="round" stroke-width="1"/>
    <path id="Caminho_16065" data-name="Caminho 16065" d="M20.448,274.9l.206,9.2,62.278.614V274.1Z" fill="#e1e1e6" stroke="#263238" stroke-linecap="round" stroke-linejoin="round" stroke-width="1"/>
    <path id="Caminho_16066" data-name="Caminho 16066" d="M82.932,284.716l9.054-19.41v-5.719L82.52,275.924Z" fill="#e1e1e6" stroke="#263238" stroke-linecap="round" stroke-linejoin="round" stroke-width="1"/>
    <path id="Caminho_16067" data-name="Caminho 16067" d="M44.5,243.249s1.443-2.851-.618-4.08-4.312,1.707-5.549,2.646S11.2,259.791,10.38,262.455s0,8.536,5.549,9.184,10.48-3.056,12.954-3.67,3.436-.82,3.436-.82l17.06-22.876Z" fill="#61dcfb" stroke="#263238" stroke-linecap="round" stroke-linejoin="round" stroke-width="1"/>
    <path id="Caminho_16068" data-name="Caminho 16068" d="M15.93,271.656c5.549.615,10.48-3.055,12.954-3.67s3.436-.819,3.436-.819l.618-.837-16.029-3.244a5.4,5.4,0,0,0-6.58-.614C9.556,265.1,10.38,271.025,15.93,271.656Z" fill="#e1e1e6" stroke="#263238" stroke-linecap="round" stroke-linejoin="round" stroke-width="1"/>
    <path id="Caminho_16069" data-name="Caminho 16069" d="M16.96,263.121h48.1c15.016,0,19.534-.82,19.534-.82l9.243-19s-29.206,1.844-38.226,1.229a68.273,68.273,0,0,1-11.1-1.229Z" fill="#61dcfb" stroke="#263238" stroke-linecap="round" stroke-linejoin="round" stroke-width="1"/>
    <path id="Caminho_16070" data-name="Caminho 16070" d="M16.96,263.121l.825,3.67s39.05.205,49.324.205,18.091.41,18.091.41l-.618-5.122Z" fill="#e1e1e6" stroke="#263238" stroke-linecap="round" stroke-linejoin="round" stroke-width="1"/>
    <path id="Caminho_16071" data-name="Caminho 16071" d="M85.2,267.354l8.625-19.615v-4.49l-9.243,19Z" fill="#e1e1e6" stroke="#263238" stroke-linecap="round" stroke-linejoin="round" stroke-width="1"/>
    <path id="Caminho_16072" data-name="Caminho 16072" d="M223.947,290.3H106.177a1.964,1.964,0,1,1,0-3.927h117.77a1.974,1.974,0,0,1,.759.145,1.954,1.954,0,0,1,.643.425,1.968,1.968,0,0,1,0,2.787,1.954,1.954,0,0,1-.643.425A1.974,1.974,0,0,1,223.947,290.3Z" fill="#161e22" stroke="#263238" stroke-linecap="round" stroke-linejoin="round" stroke-width="1"/>
    <path id="Caminho_16073" data-name="Caminho 16073" d="M225.081,286.338H105.3a1.727,1.727,0,0,1-1.18-.463,1.705,1.705,0,0,1-.538-1.142l-6.511-77.762a1.708,1.708,0,0,1,1.009-1.765,1.745,1.745,0,0,1,.709-.147H231.61a1.741,1.741,0,0,1,.708.147,1.705,1.705,0,0,1,1.01,1.765l-6.512,77.762a1.7,1.7,0,0,1-.544,1.148A1.729,1.729,0,0,1,225.081,286.338Z" transform="translate(0.441 0.441)" fill="#161e22" stroke="#263238" stroke-linecap="round" stroke-linejoin="round" stroke-width="1"/>
    <path id="Caminho_16074" data-name="Caminho 16074" d="M293.407,186.3a10.14,10.14,0,0,0,3.659-5.685,10.439,10.439,0,0,0-.12-5.122" fill="none" stroke="#6c7d85" stroke-linecap="round" stroke-linejoin="round" stroke-width="1"/>
    <path id="Caminho_16075" data-name="Caminho 16075" d="M279.7,247.176s11.425-6.829,7.7-14.631-16.339-12.974-16.339-25.13c0-10.482,11.219-14.357,18.538-18.557" fill="none" stroke="#6c7d85" stroke-linecap="round" stroke-linejoin="round" stroke-width="1"/>
    <path id="Caminho_16076" data-name="Caminho 16076" d="M290.246,246.954s6.373-4.217,6.373-10.909c0-4.49-4.827-7.426-11.2-14.648" fill="none" stroke="#6c7d85" stroke-linecap="round" stroke-linejoin="round" stroke-width="1"/>
    <path id="Caminho_16077" data-name="Caminho 16077" d="M281.9,217.027s-4.177-3.261-1.1-9.39" fill="none" stroke="#6c7d85" stroke-linecap="round" stroke-linejoin="round" stroke-width="1"/>
    <g id="Grupo_108" data-name="Grupo 108" transform="translate(-170 117)">
      <g id="salad" transform="translate(317 110)">
        <g id="Grupo_63" data-name="Grupo 63" transform="translate(0 23.355)">
          <g id="Grupo_62" data-name="Grupo 62">
            <path id="Caminho_15987" data-name="Caminho 15987" d="M36.4,324.28H.634a.618.618,0,0,0-.617.62,13,13,0,0,0,12.948,13.023h11.1A13,13,0,0,0,37.013,324.9.618.618,0,0,0,36.4,324.28Zm-12.332,12.4h-11.1a11.76,11.76,0,0,1-11.7-11.162h34.5A11.76,11.76,0,0,1,24.064,336.683Z" transform="translate(-0.017 -324.28)" fill="#fff"/>
          </g>
        </g>
        <g id="Grupo_65" data-name="Grupo 65" transform="translate(12.811 0)">
          <g id="Grupo_64" data-name="Grupo 64">
            <path id="Caminho_15988" data-name="Caminho 15988" d="M197.809,8.689c0-.045,0-.091,0-.159a2.575,2.575,0,0,0-1.736-2.19l.7-.7a3.321,3.321,0,0,0,.274-4.447,3.26,3.26,0,0,0-4.583-.443c-.079.065-.155.134-.231.21l-.763.774A2.588,2.588,0,0,0,189.257,0a2.479,2.479,0,0,0-2.61,2.345c0,.045,0,.091,0,.135v.951a2.466,2.466,0,0,0-1.238-.334c-.045,0-.091,0-.159,0a2.57,2.57,0,0,0-2.324,2.583v.843a2.472,2.472,0,0,0-1.238-.331c-.045,0-.09,0-.159,0A2.57,2.57,0,0,0,179.2,8.791v9.2a.62.62,0,0,0,.62.62h10.542a2.479,2.479,0,0,0,2.147-3.719h.838a2.567,2.567,0,0,0,2.6-2.348,2.465,2.465,0,0,0-.339-1.388,2.48,2.48,0,0,0,2.2-2.463Zm-1.6.876a1.234,1.234,0,0,1-.877.362h-1.862a.62.62,0,1,0,0,1.24l.068,0a1.238,1.238,0,0,1,1.175,1.281,1.322,1.322,0,0,1-1.348,1.2h-3a.62.62,0,0,0,0,1.24,1.24,1.24,0,1,1,0,2.481h-9.922V8.78a1.323,1.323,0,0,1,1.175-1.336l.068,0a1.241,1.241,0,0,1,1.238,1.238v0a.62.62,0,0,0,.619.62h0a.62.62,0,0,0,.62-.619h0V5.68a1.323,1.323,0,0,1,1.175-1.336l.067,0a1.242,1.242,0,0,1,1.239,1.24v0a.62.62,0,0,0,.619.62h0a.62.62,0,0,0,.62-.619h0v-3.1l0-.069a1.229,1.229,0,0,1,1.28-1.175,1.328,1.328,0,0,1,1.2,1.349v.515a.62.62,0,0,0,1.062.435l1.682-1.707c.046-.045.093-.088.142-.128a2.017,2.017,0,0,1,2.83.265,2.083,2.083,0,0,1-.182,2.786l-1.631,1.631a.62.62,0,0,0,.438,1.059h.548a1.322,1.322,0,0,1,1.313,1.175l0,.068A1.233,1.233,0,0,1,196.2,9.565Z" transform="translate(-179.202 -0.001)" fill="#fff"/>
          </g>
        </g>
        <g id="Grupo_67" data-name="Grupo 67" transform="translate(9.378 3.904)">
          <g id="Grupo_66" data-name="Grupo 66">
            <rect id="Retângulo_56" data-name="Retângulo 56" width="24.556" height="1.24" transform="translate(0 17.363) rotate(-45)" fill="#fff"/>
          </g>
        </g>
        <g id="Grupo_69" data-name="Grupo 69" transform="translate(22.808 4.967)">
          <g id="Grupo_68" data-name="Grupo 68">
            <rect id="Retângulo_57" data-name="Retângulo 57" width="1.24" height="3.101" fill="#fff"/>
          </g>
        </g>
        <g id="Grupo_71" data-name="Grupo 71" transform="translate(19.109 8.017)">
          <g id="Grupo_70" data-name="Grupo 70">
            <rect id="Retângulo_58" data-name="Retângulo 58" width="1.24" height="3.721" fill="#fff"/>
          </g>
        </g>
        <g id="Grupo_73" data-name="Grupo 73" transform="translate(15.411 11.09)">
          <g id="Grupo_72" data-name="Grupo 72">
            <rect id="Retângulo_59" data-name="Retângulo 59" width="1.24" height="4.341" fill="#fff"/>
          </g>
        </g>
        <g id="Grupo_75" data-name="Grupo 75" transform="translate(23.417 7.404)">
          <g id="Grupo_74" data-name="Grupo 74">
            <rect id="Retângulo_60" data-name="Retângulo 60" width="3.101" height="1.24" fill="#fff"/>
          </g>
        </g>
        <g id="Grupo_77" data-name="Grupo 77" transform="translate(19.717 11.096)">
          <g id="Grupo_76" data-name="Grupo 76">
            <rect id="Retângulo_61" data-name="Retângulo 61" width="3.721" height="1.24" fill="#fff"/>
          </g>
        </g>
        <g id="Grupo_79" data-name="Grupo 79" transform="translate(16.018 14.795)">
          <g id="Grupo_78" data-name="Grupo 78">
            <rect id="Retângulo_62" data-name="Retângulo 62" width="4.341" height="1.24" fill="#fff"/>
          </g>
        </g>
        <g id="Grupo_81" data-name="Grupo 81" transform="translate(2.246 1.413)">
          <g id="Grupo_80" data-name="Grupo 80">
            <path id="Caminho_15989" data-name="Caminho 15989" d="M40.245,20.9l0,0a2.861,2.861,0,0,0-3.963-.791c-.041.027-.081.055-.127.089l-.223.17-.215-.154a2.853,2.853,0,1,0-3.4,4.541l.522.408v.318a3.1,3.1,0,1,0,6.2,0v-.318l.549-.428A2.855,2.855,0,0,0,40.245,20.9Zm-1.414,2.847-.794.62a.62.62,0,0,0-.238.489v.62a1.86,1.86,0,0,1-3.721,0v-.62a.618.618,0,0,0-.238-.489l-.794-.62a.611.611,0,0,0-.075-.05,1.612,1.612,0,1,1,1.917-2.561.653.653,0,0,0,.068.056l.62.447a.62.62,0,0,0,.737-.009l.654-.492a1.6,1.6,0,0,1,1.863,2.61Z" transform="translate(-30.916 -19.441)" fill="#fff"/>
          </g>
        </g>
        <g id="Grupo_83" data-name="Grupo 83" transform="translate(13.561 0.62)">
          <g id="Grupo_82" data-name="Grupo 82">
            <rect id="Retângulo_63" data-name="Retângulo 63" width="1.24" height="1.24" fill="#fff"/>
          </g>
        </g>
        <g id="Grupo_85" data-name="Grupo 85" transform="translate(17.26 20.344)">
          <g id="Grupo_84" data-name="Grupo 84">
            <rect id="Retângulo_64" data-name="Retângulo 64" width="1.24" height="1.24" fill="#fff"/>
          </g>
        </g>
        <g id="Grupo_87" data-name="Grupo 87" transform="translate(33.275 3.724)">
          <g id="Grupo_86" data-name="Grupo 86">
            <path id="Caminho_15990" data-name="Caminho 15990" d="M460.787,51.24v1.24a1.24,1.24,0,1,1,0,2.481V56.2a2.481,2.481,0,0,0,0-4.961Z" transform="translate(-460.787 -51.24)" fill="#fff"/>
          </g>
        </g>
        <g id="Grupo_89" data-name="Grupo 89" transform="translate(1.239 9.253)">
          <g id="Grupo_88" data-name="Grupo 88">
            <rect id="Retângulo_65" data-name="Retângulo 65" width="1.24" height="1.24" fill="#fff"/>
          </g>
        </g>
        <g id="Grupo_91" data-name="Grupo 91" transform="translate(0 6.787)">
          <g id="Grupo_90" data-name="Grupo 90">
            <rect id="Retângulo_66" data-name="Retângulo 66" width="1.24" height="1.24" fill="#fff"/>
          </g>
        </g>
        <g id="Grupo_93" data-name="Grupo 93" transform="translate(21.562 19.725)">
          <g id="Grupo_92" data-name="Grupo 92">
            <path id="Caminho_15991" data-name="Caminho 15991" d="M301.145,273.083a2.483,2.483,0,0,0-2.48,2.48h1.24a1.24,1.24,0,1,1,2.48,0h1.24A2.483,2.483,0,0,0,301.145,273.083Z" transform="translate(-298.664 -273.083)" fill="#fff"/>
          </g>
        </g>
        <g id="Grupo_95" data-name="Grupo 95" transform="translate(0 12.318)">
          <g id="Grupo_94" data-name="Grupo 94">
            <path id="Caminho_15992" data-name="Caminho 15992" d="M7.46,172.55H7.381a2.481,2.481,0,0,0-4.8,0H2.5a2.48,2.48,0,1,0,0,4.961H7.46a2.48,2.48,0,1,0,0-4.961Zm0,3.721H2.5a1.24,1.24,0,1,1,0-2.48h.62a.62.62,0,0,0,.62-.62,1.24,1.24,0,0,1,2.481,0,.62.62,0,0,0,.62.62h.62a1.24,1.24,0,1,1,0,2.48Z" transform="translate(-0.018 -170.69)" fill="#fff"/>
          </g>
        </g>
        <g id="Grupo_97" data-name="Grupo 97" transform="translate(3.101 17.872)">
          <g id="Grupo_96" data-name="Grupo 96">
            <path id="Caminho_15993" data-name="Caminho 15993" d="M45.782,247.485H43.3a.62.62,0,0,0-.62.62v2.481a.62.62,0,0,0,.62.62h2.48a.62.62,0,0,0,.62-.62v-2.481A.62.62,0,0,0,45.782,247.485Zm-.62,2.48h-1.24v-1.24h1.24v1.24Z" transform="translate(-42.681 -247.485)" fill="#fff"/>
          </g>
        </g>
        <g id="Grupo_99" data-name="Grupo 99" transform="translate(30.794 16.024)">
          <g id="Grupo_98" data-name="Grupo 98">
            <path id="Caminho_15994" data-name="Caminho 15994" d="M428.516,221.887a1.86,1.86,0,1,0,1.86,1.86A1.863,1.863,0,0,0,428.516,221.887Zm0,2.481a.62.62,0,1,1,.62-.62A.621.621,0,0,1,428.516,224.368Z" transform="translate(-426.656 -221.887)" fill="#fff"/>
          </g>
        </g>
        <g id="Grupo_101" data-name="Grupo 101" transform="translate(28.314 13.544)">
          <g id="Grupo_100" data-name="Grupo 100">
            <path id="Caminho_15995" data-name="Caminho 15995" d="M396.866,187.756a4.341,4.341,0,1,0,4.341,4.341A4.346,4.346,0,0,0,396.866,187.756Zm0,7.442a3.1,3.1,0,1,1,3.1-3.1A3.1,3.1,0,0,1,396.866,195.2Z" transform="translate(-392.525 -187.756)" fill="#fff"/>
          </g>
        </g>
      </g>
    </g>
  </g>
</svg>
