<svg xmlns="http://www.w3.org/2000/svg" width="62" height="62" viewBox="0 0 62 62">
  <g id="apron" transform="translate(-1 -1)">
    <path id="Caminho_15824" data-name="Caminho 15824" d="M27.331,57,27,61.934A1,1,0,0,0,28,63H56a1,1,0,0,0,1-1.066L56.669,57Z" fill="#e83f5b"/>
    <path id="Caminho_15825" data-name="Caminho 15825" d="M54,24a8.942,8.942,0,0,0-3.605.76,9,9,0,0,0-16.789,0,8.994,8.994,0,1,0-5.264,17.078L27.465,55H56.536l-.878-13.162A9,9,0,0,0,54,24Z" fill="#e83f5b"/>
    <path id="Caminho_15826" data-name="Caminho 15826" d="M39.825,18.722a3.978,3.978,0,0,1-.792-2.375V12.3a1,1,0,1,0-2,0v4.048a5.99,5.99,0,0,0,1.192,3.575,4.166,4.166,0,0,1-.085,4.93,2.987,2.987,0,0,0-.233-.234l-3.5-2.8a1,1,0,0,1-.376-.781V12a3,3,0,0,0-2-2.816V4a3,3,0,1,0-6,0V9h-10V4a3,3,0,1,0-6,0V9.184a3,3,0,0,0-2,2.816v9.039a1,1,0,0,1-.375.781l-3.5,2.8a2.977,2.977,0,0,0-.232.233,4.115,4.115,0,0,1-.085-4.929,6,6,0,0,0,1.191-3.575V12.3a1,1,0,1,0-2,0v4.048a3.985,3.985,0,0,1-.792,2.375c-3.087,4.114.524,7.741.792,8.519V48a3,3,0,0,0,3,3h30a3,3,0,0,0,3-3V27.24C39.266,26.562,42.881,22.8,39.825,18.722ZM28.033,4a1,1,0,1,1,2,0V9h-2Zm-16,0a1,1,0,0,1,2,0V9h-2Zm25,44a1,1,0,0,1-1,1h-30a1,1,0,0,1-1-1V26.961a1,1,0,0,1,.375-.781l3.5-2.8a2.988,2.988,0,0,0,1.125-2.342V12a1,1,0,0,1,1-1h20a1,1,0,0,1,1,1v9.039a2.986,2.986,0,0,0,1.126,2.343l3.5,2.8a1,1,0,0,1,.376.781Z" fill="#151a6a"/>
    <path id="Caminho_15827" data-name="Caminho 15827" d="M30.033,29h-18a1,1,0,0,0-1,1V40a3,3,0,0,0,3,3h14a3,3,0,0,0,3-3V30a1,1,0,0,0-1-1Zm-1,11a1,1,0,0,1-1,1h-14a1,1,0,0,1-1-1V31h16Z" fill="#151a6a"/>
  </g>
</svg>
